<svg xmlns="http://www.w3.org/2000/svg" viewBox="0 0 800 460" font-family="system-ui, -apple-system, sans-serif">
  <rect width="800" height="460" fill="#FAF8F4"/>
  <rect width="148" height="460" fill="#1F1F21"/>
  <!-- Logo area -->
  <rect x="16" y="14" width="28" height="28" rx="6" fill="#FFD528"/>
  <g fill="#1F1F21">
    <rect x="29" y="17" width="2" height="1"/>
    <rect x="28" y="18" width="4" height="1"/>
    <rect x="27" y="19" width="6" height="1"/>
    <rect x="26" y="20" width="8" height="4"/>
    <rect x="29" y="21" width="2" height="2" fill="#FFD528"/>
    <rect x="24" y="24" width="12" height="1"/>
    <rect x="24" y="25" width="1" height="2"/><rect x="26" y="25" width="1" height="2"/>
    <rect x="28" y="25" width="1" height="2"/><rect x="30" y="25" width="1" height="2"/>
    <rect x="32" y="25" width="1" height="2"/><rect x="35" y="25" width="1" height="2"/>
    <rect x="24" y="27" width="12" height="1"/>
    <rect x="26" y="28" width="8" height="3"/>
    <rect x="29" y="29" width="2" height="1" fill="#FFD528"/>
    <rect x="25" y="31" width="10" height="4"/>
    <rect x="29" y="33" width="2" height="2" fill="#FFD528"/>
    <rect x="23" y="35" width="14" height="2"/>
    <rect x="22" y="37" width="16" height="2"/>
  </g>
  <text x="54" y="33" fill="white" font-size="13" font-weight="600">Crew Dock</text>
  <!-- Nav -->
  <text x="24" y="78" fill="#9A9A9A" font-size="11">Dashboard</text>
  <text x="24" y="106" fill="#9A9A9A" font-size="11">Projects</text>
  <rect x="10" y="114" width="128" height="30" rx="8" fill="#FFD528"/>
  <text x="24" y="134" fill="#1F1F21" font-size="11" font-weight="600">AI Input</text>
  <text x="24" y="162" fill="#9A9A9A" font-size="11">Timesheets</text>
  <text x="24" y="190" fill="#9A9A9A" font-size="11">Support</text>
  <text x="24" y="420" fill="#9A9A9A" font-size="11">Settings</text>
  <!-- Main -->
  <text x="168" y="36" fill="#1F1F21" font-size="16" font-weight="700">AI Assistant</text>
  <text x="168" y="52" fill="#9A9A9A" font-size="9">Describe your day in plain text and let AI fill in the calculator automatically.</text>
  <!-- Pro badge -->
  <rect x="280" y="22" width="40" height="18" rx="9" fill="#1F1F21"/>
  <text x="300" y="35" text-anchor="middle" fill="#FFD528" font-size="8" font-weight="600">PRO</text>
  <!-- Big text area -->
  <rect x="168" y="64" width="614" height="140" rx="12" fill="white" stroke="#E5E5E5" stroke-width="1"/>
  <text x="184" y="88" fill="#555" font-size="10">Called at 7am on Monday as Gaffer at £568. Wrapped at 8pm.</text>
  <text x="184" y="106" fill="#555" font-size="10">45 min lunch at 1pm. Drove 30 miles to location.</text>
  <text x="184" y="124" fill="#555" font-size="10">Tuesday same times but wrapped at 7pm, continuous day.</text>
  <text x="184" y="142" fill="#555" font-size="10">Wednesday was a travel day.</text>
  <!-- Buttons -->
  <rect x="168" y="218" width="130" height="32" rx="16" fill="#FFD528"/>
  <text x="233" y="239" text-anchor="middle" fill="#1F1F21" font-size="10" font-weight="600">Send</text>
  <rect x="308" y="218" width="140" height="32" rx="16" fill="white" stroke="#E5E5E5" stroke-width="1"/>
  <text x="378" y="239" text-anchor="middle" fill="#555" font-size="10">Manual Calculator</text>
  <!-- Divider -->
  <line x1="168" y1="268" x2="782" y2="268" stroke="#E5E5E5" stroke-width="1"/>
  <!-- Two columns: Timesheet examples + T&C questions -->
  <text x="168" y="292" fill="#1F1F21" font-size="11" font-weight="600">Timesheet examples</text>
  <rect x="168" y="302" width="300" height="28" rx="8" fill="white" stroke="#E5E5E5" stroke-width="1"/>
  <text x="184" y="320" fill="#555" font-size="9">"Call 0800 wrap 1700 + 2h OT"</text>
  <rect x="168" y="336" width="300" height="28" rx="8" fill="white" stroke="#E5E5E5" stroke-width="1"/>
  <text x="184" y="354" fill="#555" font-size="9">"Focus Puller on Monday at £558. Called 7am, wrapped 10pm."</text>
  <rect x="168" y="370" width="300" height="28" rx="8" fill="white" stroke="#E5E5E5" stroke-width="1"/>
  <text x="184" y="388" fill="#555" font-size="9">"3 day shoot as DoP at £1200. Mon-Wed, call 0730."</text>
  <text x="486" y="292" fill="#1F1F21" font-size="11" font-weight="600">APA T&amp;C questions</text>
  <rect x="486" y="302" width="296" height="28" rx="8" fill="white" stroke="#E5E5E5" stroke-width="1"/>
  <text x="502" y="320" fill="#555" font-size="9">"What are the OT grade multipliers?"</text>
  <rect x="486" y="336" width="296" height="28" rx="8" fill="white" stroke="#E5E5E5" stroke-width="1"/>
  <text x="502" y="354" fill="#555" font-size="9">"When does a meal break penalty apply?"</text>
  <rect x="486" y="370" width="296" height="28" rx="8" fill="white" stroke="#E5E5E5" stroke-width="1"/>
  <text x="502" y="388" fill="#555" font-size="9">"What counts as continuous working?"</text>
  <!-- Bottom tip -->
  <rect x="168" y="412" width="614" height="34" rx="8" fill="#FAF8F4" stroke="#E5E5E5" stroke-width="0.5"/>
  <text x="184" y="433" fill="#9A9A9A" font-size="9">Tip: You can describe multiple days at once — AI will create a separate entry for each day.</text>
</svg>
