<svg xmlns="http://www.w3.org/2000/svg" viewBox="0 0 800 460" font-family="system-ui, -apple-system, sans-serif">
  <!-- Background -->
  <rect width="800" height="460" fill="#FAF8F4"/>
  <!-- Sidebar -->
  <rect width="148" height="460" fill="#1F1F21" rx="0"/>
  <!-- Logo area: yellow badge -->
  <rect x="16" y="14" width="28" height="28" rx="6" fill="#FFD528"/>
  <!-- Pixel lighthouse icon -->
  <g fill="#1F1F21">
    <!-- Stepped roof tip -->
    <rect x="29" y="17" width="2" height="1"/>
    <rect x="28" y="18" width="4" height="1"/>
    <rect x="27" y="19" width="6" height="1"/>
    <!-- Lamp room with single centered window -->
    <rect x="26" y="20" width="8" height="4"/>
    <rect x="29" y="21" width="2" height="2" fill="#FFD528"/>
    <!-- Gallery railing with bars -->
    <rect x="24" y="24" width="12" height="1"/>
    <rect x="24" y="25" width="1" height="2"/><rect x="26" y="25" width="1" height="2"/>
    <rect x="28" y="25" width="1" height="2"/><rect x="30" y="25" width="1" height="2"/>
    <rect x="32" y="25" width="1" height="2"/><rect x="35" y="25" width="1" height="2"/>
    <rect x="24" y="27" width="12" height="1"/>
    <!-- Upper tower -->
    <rect x="26" y="28" width="8" height="3"/>
    <rect x="29" y="29" width="2" height="1" fill="#FFD528"/>
    <!-- Lower tower -->
    <rect x="25" y="31" width="10" height="4"/>
    <rect x="29" y="33" width="2" height="2" fill="#FFD528"/>
    <!-- Stepped base -->
    <rect x="23" y="35" width="14" height="2"/>
    <rect x="22" y="37" width="16" height="2"/>
  </g>
  <text x="54" y="33" fill="white" font-size="13" font-weight="600">Crew Dock</text>
  <!-- Nav items -->
  <rect x="10" y="58" width="128" height="30" rx="8" fill="#FFD528"/>
  <text x="24" y="78" fill="#1F1F21" font-size="11" font-weight="600">Dashboard</text>
  <text x="24" y="112" fill="#9A9A9A" font-size="11">Projects</text>
  <text x="24" y="140" fill="#9A9A9A" font-size="11">AI Input</text>
  <text x="24" y="168" fill="#9A9A9A" font-size="11">Timesheets</text>
  <text x="24" y="196" fill="#9A9A9A" font-size="11">Support</text>
  <text x="24" y="420" fill="#9A9A9A" font-size="11">Settings</text>
  <!-- Main area -->
  <!-- Header -->
  <text x="168" y="42" fill="#1F1F21" font-size="22" font-weight="700">Hi, there!</text>
  <text x="168" y="60" fill="#9A9A9A" font-size="11">Let's manage your crew bookings</text>
  <rect x="580" y="22" width="80" height="28" rx="14" fill="#1F1F21"/>
  <text x="620" y="41" text-anchor="middle" fill="white" font-size="10">✦ AI Input</text>
  <rect x="670" y="22" width="80" height="28" rx="14" fill="#FFD528"/>
  <text x="710" y="41" text-anchor="middle" fill="#1F1F21" font-size="10" font-weight="600">+ New Job</text>
  <!-- Calendar card -->
  <rect x="168" y="76" width="350" height="280" rx="12" fill="white" stroke="#E5E5E5" stroke-width="1"/>
  <text x="210" y="108" fill="#1F1F21" font-size="15" font-weight="700">April 2026</text>
  <text x="188" y="136" fill="#9A9A9A" font-size="9">Mon</text>
  <text x="220" y="136" fill="#9A9A9A" font-size="9">Tue</text>
  <text x="252" y="136" fill="#9A9A9A" font-size="9">Wed</text>
  <text x="284" y="136" fill="#9A9A9A" font-size="9">Thu</text>
  <text x="316" y="136" fill="#9A9A9A" font-size="9">Fri</text>
  <text x="348" y="136" fill="#9A9A9A" font-size="9">Sat</text>
  <text x="380" y="136" fill="#9A9A9A" font-size="9">Sun</text>
  <!-- Calendar grid rows -->
  <!-- Week 1 -->
  <text x="255" y="163" text-anchor="middle" fill="#555" font-size="9">1</text>
  <text x="287" y="163" text-anchor="middle" fill="#555" font-size="9">2</text>
  <text x="319" y="163" text-anchor="middle" fill="#555" font-size="9">3</text>
  <text x="351" y="163" text-anchor="middle" fill="#555" font-size="9">4</text>
  <text x="383" y="163" text-anchor="middle" fill="#555" font-size="9">5</text>
  <!-- Week 2 -->
  <text x="191" y="185" text-anchor="middle" fill="#555" font-size="9">6</text>
  <rect x="212" y="175" width="22" height="22" rx="4" fill="#FFD528"/>
  <text x="223" y="190" text-anchor="middle" fill="#1F1F21" font-size="9" font-weight="700">7</text>
  <rect x="244" y="175" width="22" height="22" rx="4" fill="#FFD528"/>
  <text x="255" y="190" text-anchor="middle" fill="#1F1F21" font-size="9" font-weight="700">8</text>
  <rect x="276" y="175" width="22" height="22" rx="4" fill="#FFD528"/>
  <text x="287" y="190" text-anchor="middle" fill="#1F1F21" font-size="9" font-weight="700">9</text>
  <text x="319" y="185" text-anchor="middle" fill="#555" font-size="9">10</text>
  <text x="351" y="185" text-anchor="middle" fill="#555" font-size="9">11</text>
  <text x="383" y="185" text-anchor="middle" fill="#555" font-size="9">12</text>
  <!-- Week 3 -->
  <text x="191" y="207" text-anchor="middle" fill="#555" font-size="9">13</text>
  <text x="223" y="207" text-anchor="middle" fill="#555" font-size="9">14</text>
  <text x="255" y="207" text-anchor="middle" fill="#555" font-size="9">15</text>
  <text x="287" y="207" text-anchor="middle" fill="#555" font-size="9">16</text>
  <text x="319" y="207" text-anchor="middle" fill="#555" font-size="9">17</text>
  <text x="351" y="207" text-anchor="middle" fill="#555" font-size="9">18</text>
  <text x="383" y="207" text-anchor="middle" fill="#555" font-size="9">19</text>
  <!-- Week 4 -->
  <rect x="180" y="217" width="22" height="22" rx="4" fill="#FFD528"/>
  <text x="191" y="232" text-anchor="middle" fill="#1F1F21" font-size="9" font-weight="700">20</text>
  <rect x="212" y="217" width="22" height="22" rx="4" fill="#FFD528"/>
  <text x="223" y="232" text-anchor="middle" fill="#1F1F21" font-size="9" font-weight="700">21</text>
  <rect x="244" y="217" width="22" height="22" rx="4" fill="#FFD528"/>
  <text x="255" y="232" text-anchor="middle" fill="#1F1F21" font-size="9" font-weight="700">22</text>
  <rect x="276" y="217" width="22" height="22" rx="4" fill="#FFD528"/>
  <text x="287" y="232" text-anchor="middle" fill="#1F1F21" font-size="9" font-weight="700">23</text>
  <rect x="308" y="217" width="22" height="22" rx="4" fill="#FFD528"/>
  <text x="319" y="232" text-anchor="middle" fill="#1F1F21" font-size="9" font-weight="700">24</text>
  <text x="351" y="232" text-anchor="middle" fill="#555" font-size="9">25</text>
  <text x="383" y="232" text-anchor="middle" fill="#555" font-size="9">26</text>
  <!-- Week 5 -->
  <text x="191" y="254" text-anchor="middle" fill="#555" font-size="9">27</text>
  <text x="223" y="254" text-anchor="middle" fill="#555" font-size="9">28</text>
  <text x="255" y="254" text-anchor="middle" fill="#555" font-size="9">29</text>
  <text x="287" y="254" text-anchor="middle" fill="#555" font-size="9">30</text>
  <!-- Days booked badge -->
  <rect x="420" y="92" width="80" height="22" rx="11" fill="#1F1F21"/>
  <text x="460" y="107" text-anchor="middle" fill="#FFD528" font-size="8" font-weight="600">10 days booked</text>
  <!-- Income chart area -->
  <text x="188" y="282" fill="#1F1F21" font-size="10" font-weight="600">6-month income</text>
  <!-- Mini bar chart -->
  <rect x="200" y="310" width="28" height="20" rx="3" fill="#E5E2DC"/>
  <rect x="240" y="300" width="28" height="30" rx="3" fill="#E5E2DC"/>
  <rect x="280" y="295" width="28" height="35" rx="3" fill="#E5E2DC"/>
  <rect x="320" y="305" width="28" height="25" rx="3" fill="#E5E2DC"/>
  <rect x="360" y="290" width="28" height="40" rx="3" fill="#FFD528"/>
  <rect x="400" y="310" width="28" height="20" rx="3" fill="#E5E2DC" stroke="#FFD528" stroke-width="1" stroke-dasharray="2"/>
  <text x="214" y="342" text-anchor="middle" fill="#9A9A9A" font-size="7">Nov</text>
  <text x="254" y="342" text-anchor="middle" fill="#9A9A9A" font-size="7">Dec</text>
  <text x="294" y="342" text-anchor="middle" fill="#9A9A9A" font-size="7">Jan</text>
  <text x="334" y="342" text-anchor="middle" fill="#9A9A9A" font-size="7">Feb</text>
  <text x="374" y="342" text-anchor="middle" fill="#9A9A9A" font-size="7">Mar</text>
  <text x="414" y="342" text-anchor="middle" fill="#9A9A9A" font-size="7">Apr</text>
  <!-- Stats cards -->
  <rect x="534" y="76" width="246" height="80" rx="12" fill="white" stroke="#E5E5E5" stroke-width="1"/>
  <text x="554" y="100" fill="#9A9A9A" font-size="9" font-weight="600" letter-spacing="0.5">APRIL 2026</text>
  <text x="554" y="126" fill="#1F1F21" font-size="22" font-weight="700">£4,280</text>
  <text x="554" y="144" fill="#9A9A9A" font-size="9">Monthly earnings</text>
  <rect x="534" y="168" width="246" height="80" rx="12" fill="#1F1F21"/>
  <text x="554" y="192" fill="#9A9A9A" font-size="9" font-weight="600" letter-spacing="0.5">2026 TOTAL</text>
  <text x="554" y="222" fill="white" font-size="22" font-weight="700">£18,560</text>
  <!-- Days booked donut -->
  <rect x="534" y="260" width="246" height="96" rx="12" fill="white" stroke="#E5E5E5" stroke-width="1"/>
  <circle cx="580" cy="308" r="20" fill="none" stroke="#E5E2DC" stroke-width="5"/>
  <circle cx="580" cy="308" r="20" fill="none" stroke="#FFD528" stroke-width="5" stroke-dasharray="40 86" stroke-dashoffset="31" transform="rotate(-90 580 308)"/>
  <text x="580" y="312" text-anchor="middle" fill="#1F1F21" font-size="10" font-weight="700">10</text>
  <text x="616" y="302" fill="#1F1F21" font-size="10" font-weight="600">Days booked</text>
  <text x="616" y="318" fill="#9A9A9A" font-size="9">10 of 22 working days</text>
  <!-- Recent projects -->
  <text x="168" y="382" fill="#1F1F21" font-size="14" font-weight="600">Recent Projects</text>
  <rect x="168" y="395" width="200" height="50" rx="12" fill="white" stroke="#E5E5E5" stroke-width="1"/>
  <text x="184" y="415" fill="#1F1F21" font-size="10" font-weight="600">Nike Summer 2026</text>
  <text x="184" y="432" fill="#9A9A9A" font-size="8">5 days  ·  £3,420</text>
  <rect x="310" y="160" width="56" height="18" rx="9" fill="#D1FAE5"/>
  <rect x="380" y="395" width="200" height="50" rx="12" fill="white" stroke="#E5E5E5" stroke-width="1"/>
  <text x="396" y="415" fill="#1F1F21" font-size="10" font-weight="600">Horizon TVC</text>
  <text x="396" y="432" fill="#9A9A9A" font-size="8">3 days  ·  £1,860</text>
  <rect x="590" y="395" width="190" height="50" rx="12" fill="white" stroke="#E5E5E5" stroke-width="1"/>
  <text x="606" y="415" fill="#1F1F21" font-size="10" font-weight="600">Adidas Originals</text>
  <text x="606" y="432" fill="#9A9A9A" font-size="8">2 days  ·  £1,000</text>
</svg>
