<svg xmlns="http://www.w3.org/2000/svg" viewBox="0 0 800 460" font-family="system-ui, -apple-system, sans-serif">
  <rect width="800" height="460" fill="#FAF8F4"/>
  <rect width="148" height="460" fill="#1F1F21"/>
  <!-- Logo area -->
  <rect x="16" y="14" width="28" height="28" rx="6" fill="#FFD528"/>
  <g fill="#1F1F21">
    <rect x="28" y="17" width="4" height="2"/>
    <rect x="26" y="19" width="8" height="2"/>
    <rect x="25" y="21" width="10" height="3"/>
    <rect x="27" y="22" width="2" height="1" fill="#FFD528"/>
    <rect x="31" y="22" width="2" height="1" fill="#FFD528"/>
    <rect x="23" y="24" width="14" height="2"/>
    <rect x="25" y="26" width="10" height="4"/>
    <rect x="28" y="27" width="4" height="2" fill="#FFD528"/>
    <rect x="24" y="30" width="12" height="4"/>
    <rect x="28" y="31" width="4" height="3" fill="#FFD528"/>
    <rect x="22" y="34" width="16" height="3"/>
    <rect x="20" y="37" width="20" height="2"/>
  </g>
  <text x="54" y="33" fill="white" font-size="13" font-weight="600">Crew Dock</text>
  <!-- Nav -->
  <text x="24" y="78" fill="#9A9A9A" font-size="11">Dashboard</text>
  <text x="24" y="106" fill="#9A9A9A" font-size="11">Projects</text>
  <text x="24" y="134" fill="#9A9A9A" font-size="11">AI Input</text>
  <rect x="10" y="142" width="128" height="30" rx="8" fill="#FFD528"/>
  <text x="24" y="162" fill="#1F1F21" font-size="11" font-weight="600">Timesheets</text>
  <text x="24" y="190" fill="#9A9A9A" font-size="11">Support</text>
  <text x="24" y="420" fill="#9A9A9A" font-size="11">Settings</text>
  <!-- Header -->
  <text x="168" y="36" fill="#1F1F21" font-size="16" font-weight="700">Timesheets &amp; Invoices</text>
  <!-- Tabs -->
  <rect x="168" y="48" width="80" height="28" rx="14" fill="#1F1F21"/>
  <text x="208" y="66" text-anchor="middle" fill="white" font-size="10" font-weight="600">Timesheet</text>
  <rect x="256" y="48" width="70" height="28" rx="14" fill="white" stroke="#E5E5E5" stroke-width="1"/>
  <text x="291" y="66" text-anchor="middle" fill="#555" font-size="10">Invoice</text>
  <!-- Left: form -->
  <rect x="168" y="86" width="300" height="360" rx="12" fill="white" stroke="#E5E5E5" stroke-width="1"/>
  <text x="184" y="116" fill="#1F1F21" font-size="13" font-weight="600">Invoice Details</text>
  <text x="184" y="132" fill="#9A9A9A" font-size="9">Select a project, then fill in your details</text>
  <text x="184" y="156" fill="#555" font-size="9" font-weight="600">PROJECT</text>
  <rect x="184" y="162" width="268" height="28" rx="8" fill="#FAF8F4" stroke="#E5E5E5" stroke-width="1"/>
  <text x="200" y="180" fill="#555" font-size="9">Nike Summer 2026</text>
  <text x="184" y="210" fill="#555" font-size="9" font-weight="600">YOUR NAME / COMPANY</text>
  <rect x="184" y="216" width="268" height="28" rx="8" fill="#FAF8F4" stroke="#E5E5E5" stroke-width="1"/>
  <text x="200" y="234" fill="#555" font-size="9">Jane Smith Productions</text>
  <text x="184" y="264" fill="#555" font-size="9" font-weight="600">CLIENT / PRODUCTION COMPANY</text>
  <rect x="184" y="270" width="268" height="28" rx="8" fill="#FAF8F4" stroke="#E5E5E5" stroke-width="1"/>
  <text x="200" y="288" fill="#555" font-size="9">Production Co. Ltd</text>
  <text x="184" y="318" fill="#555" font-size="9" font-weight="600">CLIENT EMAIL</text>
  <rect x="184" y="324" width="268" height="28" rx="8" fill="#FAF8F4" stroke="#E5E5E5" stroke-width="1"/>
  <text x="200" y="342" fill="#555" font-size="9">accounts@production.co.uk</text>
  <!-- VAT toggle -->
  <rect x="184" y="362" width="268" height="26" rx="8" fill="#FAF8F4"/>
  <rect x="414" y="366" width="32" height="18" rx="9" fill="#22C55E"/>
  <circle cx="438" cy="375" r="7" fill="white"/>
  <text x="200" y="379" fill="#555" font-size="9">VAT registered (20%)</text>
  <!-- Buttons -->
  <rect x="184" y="402" width="128" height="30" rx="15" fill="#1F1F21"/>
  <text x="248" y="421" text-anchor="middle" fill="white" font-size="9" font-weight="500">Download PDF</text>
  <rect x="322" y="402" width="130" height="30" rx="15" fill="white" stroke="#E5E5E5" stroke-width="1"/>
  <text x="387" y="421" text-anchor="middle" fill="#555" font-size="9">Send to Client</text>
  <!-- Right: invoice preview -->
  <rect x="484" y="50" width="296" height="396" rx="12" fill="white" stroke="#E5E5E5" stroke-width="1"/>
  <rect x="484" y="50" width="296" height="70" rx="12" fill="#1F1F21"/>
  <rect x="484" y="100" width="296" height="20" rx="0" fill="#1F1F21"/>
  <!-- Invoice header logo -->
  <rect x="500" y="62" width="22" height="22" rx="5" fill="#FFD528"/>
  <g fill="#1F1F21">
    <rect x="509" y="64" width="2" height="1"/>
    <rect x="508" y="65" width="4" height="1"/>
    <rect x="507" y="66" width="6" height="2"/>
    <rect x="505" y="68" width="10" height="1"/>
    <rect x="507" y="69" width="6" height="3"/>
    <rect x="509" y="70" width="2" height="1" fill="#FFD528"/>
    <rect x="506" y="72" width="8" height="2"/>
    <rect x="508" y="73" width="4" height="1" fill="#FFD528"/>
    <rect x="505" y="74" width="10" height="2"/>
    <rect x="503" y="76" width="14" height="2"/>
  </g>
  <text x="530" y="77" fill="white" font-size="10" font-weight="600">Crew Dock</text>
  <rect x="650" y="58" width="114" height="30" rx="6" fill="#FFD528"/>
  <text x="707" y="78" text-anchor="middle" fill="#1F1F21" font-size="12" font-weight="800">INVOICE</text>
  <text x="707" y="104" text-anchor="middle" fill="#FFD528" font-size="8" font-weight="600">#INV-MN4M10HN</text>
  <text x="707" y="116" text-anchor="middle" fill="#9A9A9A" font-size="7">7 April 2026</text>
  <!-- From / Bill To -->
  <text x="500" y="148" fill="#9A9A9A" font-size="7" font-weight="600" letter-spacing="0.5">FROM</text>
  <text x="500" y="164" fill="#1F1F21" font-size="10" font-weight="700">Jane Smith Productions</text>
  <text x="500" y="178" fill="#555" font-size="8">42 Camden High St, London</text>
  <text x="500" y="190" fill="#555" font-size="8">VAT: GB123456789</text>
  <text x="640" y="148" fill="#9A9A9A" font-size="7" font-weight="600" letter-spacing="0.5">BILL TO</text>
  <text x="640" y="164" fill="#1F1F21" font-size="10" font-weight="700">Production Co. Ltd</text>
  <text x="640" y="178" fill="#555" font-size="8">10 Soho Square, London</text>
  <!-- Job pill -->
  <rect x="500" y="200" width="70" height="36" rx="6" fill="#FAF8F4"/>
  <text x="535" y="215" text-anchor="middle" fill="#9A9A9A" font-size="6" font-weight="600" letter-spacing="0.3">PROJECT</text>
  <text x="535" y="229" text-anchor="middle" fill="#1F1F21" font-size="9" font-weight="600">Nike '26</text>
  <!-- Line items -->
  <line x1="484" y1="246" x2="780" y2="246" stroke="#E5E5E5" stroke-width="1"/>
  <text x="500" y="262" fill="#9A9A9A" font-size="7" font-weight="600">DESCRIPTION</text>
  <text x="700" y="262" text-anchor="end" fill="#9A9A9A" font-size="7" font-weight="600">AMOUNT</text>
  <text x="500" y="280" fill="#555" font-size="8">Mon 06 Apr — Shoot Day (12h)</text>
  <text x="764" y="280" text-anchor="end" fill="#555" font-size="8">£856.20</text>
  <text x="500" y="296" fill="#555" font-size="8">Tue 07 Apr — Shoot Day (13h)</text>
  <text x="764" y="296" text-anchor="end" fill="#555" font-size="8">£910.40</text>
  <text x="500" y="312" fill="#555" font-size="8">Wed 08 Apr — Travel Day</text>
  <text x="764" y="312" text-anchor="end" fill="#555" font-size="8">£284.00</text>
  <!-- Totals -->
  <line x1="484" y1="324" x2="780" y2="324" stroke="#E5E5E5" stroke-width="1"/>
  <text x="620" y="342" fill="#9A9A9A" font-size="8">Subtotal</text>
  <text x="764" y="342" text-anchor="end" fill="#555" font-size="8">£2,050.60</text>
  <text x="620" y="358" fill="#9A9A9A" font-size="8">VAT (20%)</text>
  <text x="764" y="358" text-anchor="end" fill="#555" font-size="8">£410.12</text>
  <line x1="620" y1="366" x2="764" y2="366" stroke="#E5E5E5" stroke-width="0.5"/>
  <text x="620" y="384" fill="#1F1F21" font-size="11" font-weight="700">Total Due</text>
  <text x="764" y="384" text-anchor="end" fill="#1F1F21" font-size="13" font-weight="700">£2,460.72</text>
  <!-- Payment details -->
  <text x="500" y="408" fill="#9A9A9A" font-size="7">Sort: 12-34-56 · Acc: 12345678 · Jane Smith Productions</text>
  <!-- Bookkeeping buttons -->
  <rect x="484" y="420" width="96" height="22" rx="11" fill="#FAF8F4" stroke="#E5E5E5" stroke-width="0.5"/>
  <text x="532" y="435" text-anchor="middle" fill="#555" font-size="7" font-weight="500">Send to Xero</text>
  <rect x="586" y="420" width="96" height="22" rx="11" fill="#FAF8F4" stroke="#E5E5E5" stroke-width="0.5"/>
  <text x="634" y="435" text-anchor="middle" fill="#555" font-size="7" font-weight="500">Send to FreeAgent</text>
</svg>
