<svg xmlns="http://www.w3.org/2000/svg" viewBox="0 0 800 460" font-family="system-ui, -apple-system, sans-serif">
  <rect width="800" height="460" fill="#FAF8F4"/>
  <rect width="148" height="460" fill="#1F1F21"/>
  <rect x="16" y="14" width="28" height="28" rx="6" fill="#FFD528"/>
  <text x="30" y="33" text-anchor="middle" fill="#1F1F21" font-size="14">⚓</text>
  <text x="54" y="33" fill="white" font-size="13" font-weight="600">Crew Dock</text>
  <text x="24" y="78" fill="#9A9A9A" font-size="11">Dashboard</text>
  <text x="24" y="106" fill="#9A9A9A" font-size="11">Calculator</text>
  <text x="24" y="134" fill="#9A9A9A" font-size="11">Jobs</text>
  <text x="24" y="162" fill="#9A9A9A" font-size="11">AI Input</text>
  <rect x="10" y="170" width="128" height="30" rx="8" fill="#FFD528"/>
  <text x="24" y="190" fill="#1F1F21" font-size="11" font-weight="600">Invoices</text>
  <text x="24" y="218" fill="#9A9A9A" font-size="11">Support</text>
  <text x="24" y="420" fill="#9A9A9A" font-size="11">Settings</text>
  <!-- Header -->
  <text x="168" y="36" fill="#1F1F21" font-size="16" font-weight="700">Invoice Generator</text>
  <!-- Left: form -->
  <rect x="168" y="50" width="300" height="390" rx="12" fill="white" stroke="#E5E5E5" stroke-width="1"/>
  <text x="184" y="80" fill="#1F1F21" font-size="13" font-weight="600">Invoice Details</text>
  <text x="184" y="96" fill="#9A9A9A" font-size="9">Select a job, then fill in your details</text>
  <text x="184" y="120" fill="#555" font-size="9" font-weight="600">JOB</text>
  <rect x="184" y="126" width="268" height="28" rx="8" fill="#FAF8F4" stroke="#E5E5E5" stroke-width="1"/>
  <text x="200" y="144" fill="#9A9A9A" font-size="9">Select a job…</text>
  <text x="184" y="174" fill="#555" font-size="9" font-weight="600">YOUR NAME / COMPANY</text>
  <rect x="184" y="180" width="268" height="28" rx="8" fill="#FAF8F4" stroke="#E5E5E5" stroke-width="1"/>
  <text x="200" y="198" fill="#555" font-size="9">Orbit Innovations Ltd</text>
  <text x="184" y="228" fill="#555" font-size="9" font-weight="600">CLIENT / PRODUCTION COMPANY</text>
  <rect x="184" y="234" width="268" height="28" rx="8" fill="#FAF8F4" stroke="#E5E5E5" stroke-width="1"/>
  <text x="200" y="252" fill="#555" font-size="9">Production Co. Ltd</text>
  <text x="184" y="282" fill="#555" font-size="9" font-weight="600">BANK DETAILS</text>
  <rect x="184" y="288" width="268" height="28" rx="8" fill="#FAF8F4" stroke="#E5E5E5" stroke-width="1"/>
  <text x="200" y="306" fill="#555" font-size="9">Sort: 12-34-56 · Acc: 12345678</text>
  <!-- Buttons -->
  <rect x="184" y="392" width="128" height="30" rx="15" fill="#1F1F21"/>
  <text x="248" y="411" text-anchor="middle" fill="white" font-size="9" font-weight="500">⬇ Download PDF</text>
  <rect x="322" y="392" width="130" height="30" rx="15" fill="white" stroke="#E5E5E5" stroke-width="1"/>
  <text x="387" y="411" text-anchor="middle" fill="#555" font-size="9">✉ Send to Client</text>
  <!-- Right: invoice preview -->
  <rect x="484" y="50" width="296" height="390" rx="12" fill="white" stroke="#E5E5E5" stroke-width="1"/>
  <rect x="484" y="50" width="296" height="70" rx="12" fill="#1F1F21"/>
  <rect x="484" y="100" width="296" height="20" rx="0" fill="#1F1F21"/>
  <rect x="500" y="62" width="22" height="22" rx="5" fill="#FFD528"/>
  <text x="511" y="77" text-anchor="middle" fill="#1F1F21" font-size="10">⚓</text>
  <text x="530" y="77" fill="white" font-size="10" font-weight="600">Crew Dock</text>
  <rect x="650" y="58" width="114" height="30" rx="6" fill="#FFD528"/>
  <text x="707" y="78" text-anchor="middle" fill="#1F1F21" font-size="12" font-weight="800">INVOICE</text>
  <text x="707" y="104" text-anchor="middle" fill="#FFD528" font-size="8" font-weight="600">#INV-MN4M10HN</text>
  <text x="707" y="116" text-anchor="middle" fill="#9A9A9A" font-size="7">24 March 2026</text>
  <text x="500" y="148" fill="#9A9A9A" font-size="7" font-weight="600" letter-spacing="0.5">FROM</text>
  <text x="500" y="164" fill="#1F1F21" font-size="10" font-weight="700">Orbit Innovations Ltd</text>
  <text x="500" y="178" fill="#555" font-size="8">128 City Road, London</text>
  <text x="640" y="148" fill="#9A9A9A" font-size="7" font-weight="600" letter-spacing="0.5">BILL TO</text>
  <text x="640" y="164" fill="#1F1F21" font-size="10" font-weight="700">Shutterstock</text>
  <rect x="500" y="192" width="70" height="36" rx="6" fill="#FAF8F4"/>
  <text x="535" y="207" text-anchor="middle" fill="#9A9A9A" font-size="6" font-weight="600" letter-spacing="0.3">JOB</text>
  <text x="535" y="221" text-anchor="middle" fill="#1F1F21" font-size="9" font-weight="600">Durex</text>
  <line x1="484" y1="240" x2="780" y2="240" stroke="#E5E5E5" stroke-width="1"/>
  <text x="500" y="260" fill="#9A9A9A" font-size="8">Mon 24 Mar — Basic Working Day</text>
  <text x="764" y="260" text-anchor="end" fill="#555" font-size="8">£796.32</text>
  <text x="500" y="280" fill="#9A9A9A" font-size="8">Tue 25 Mar — Travel Day</text>
  <text x="764" y="280" text-anchor="end" fill="#555" font-size="8">£284.00</text>
  <line x1="484" y1="298" x2="780" y2="298" stroke="#E5E5E5" stroke-width="1"/>
  <text x="500" y="320" fill="#1F1F21" font-size="11" font-weight="700">Total</text>
  <text x="764" y="320" text-anchor="end" fill="#1F1F21" font-size="13" font-weight="700">£1,080.32</text>
</svg>
