<svg xmlns="http://www.w3.org/2000/svg" viewBox="0 0 800 460" font-family="system-ui, -apple-system, sans-serif">
  <rect width="800" height="460" fill="#FAF8F4"/>
  <rect width="148" height="460" fill="#1F1F21"/>
  <rect x="16" y="14" width="28" height="28" rx="6" fill="#FFD528"/>
  <rect x="21" y="20" width="3" height="16" rx="1" fill="#1F1F21"/>
  <rect x="19" y="18" width="7" height="4" rx="1" fill="#1F1F21"/>
  <rect x="17" y="34" width="11" height="3" rx="1" fill="#1F1F21"/>
  <rect x="26" y="24" width="6" height="3" rx="1" fill="#1F1F21"/>
  <text x="54" y="33" fill="white" font-size="13" font-weight="600">Crew Dock</text>
  <text x="24" y="78" fill="#9A9A9A" font-size="11">Dashboard</text>
  <text x="24" y="106" fill="#9A9A9A" font-size="11">Calculator</text>
  <rect x="10" y="114" width="128" height="30" rx="8" fill="#FFD528"/>
  <text x="24" y="134" fill="#1F1F21" font-size="11" font-weight="600">Jobs</text>
  <text x="24" y="162" fill="#9A9A9A" font-size="11">AI Input</text>
  <text x="24" y="190" fill="#9A9A9A" font-size="11">Invoices</text>
  <text x="24" y="218" fill="#9A9A9A" font-size="11">Support</text>
  <text x="24" y="420" fill="#9A9A9A" font-size="11">Settings</text>
  <!-- Header -->
  <text x="168" y="36" fill="#1F1F21" font-size="18" font-weight="700">Jobs</text>
  <text x="168" y="52" fill="#9A9A9A" font-size="10">All your crew booking jobs</text>
  <rect x="672" y="18" width="108" height="28" rx="14" fill="#FFD528"/>
  <text x="726" y="37" text-anchor="middle" fill="#1F1F21" font-size="10" font-weight="600">+ New Job</text>
  <!-- Tabs -->
  <rect x="168" y="64" width="60" height="26" rx="13" fill="#1F1F21"/>
  <text x="198" y="81" text-anchor="middle" fill="white" font-size="10" font-weight="600">Jobs</text>
  <text x="248" y="81" fill="#9A9A9A" font-size="10">History</text>
  <!-- Job cards -->
  <rect x="168" y="102" width="230" height="80" rx="12" fill="white" stroke="#E5E5E5" stroke-width="1"/>
  <text x="184" y="126" fill="#1F1F21" font-size="12" font-weight="600">Nike Summer 2026</text>
  <text x="184" y="143" fill="#9A9A9A" font-size="9">👤 Production Co. Ltd</text>
  <text x="184" y="168" fill="#9A9A9A" font-size="9">📅 Created 20 Mar 2026</text>
  <rect x="310" y="160" width="56" height="18" rx="9" fill="#D1FAE5"/>
  <text x="338" y="172" text-anchor="middle" fill="#059669" font-size="8" font-weight="600">Ongoing</text>

  <rect x="410" y="102" width="230" height="80" rx="12" fill="white" stroke="#E5E5E5" stroke-width="1"/>
  <text x="426" y="126" fill="#1F1F21" font-size="12" font-weight="600">Horizon TVC</text>
  <text x="426" y="143" fill="#9A9A9A" font-size="9">👤 Lighthouse Films</text>
  <text x="426" y="168" fill="#9A9A9A" font-size="9">📅 Created 15 Mar 2026</text>
  <rect x="548" y="160" width="60" height="18" rx="9" fill="#FEF3C7"/>
  <text x="578" y="172" text-anchor="middle" fill="#D97706" font-size="8" font-weight="600">Invoiced</text>

  <!-- Detail panel -->
  <rect x="168" y="200" width="614" height="240" rx="12" fill="white" stroke="#FFD528" stroke-width="2"/>
  <text x="184" y="228" fill="#1F1F21" font-size="13" font-weight="600">Nike Summer 2026</text>
  <text x="184" y="245" fill="#9A9A9A" font-size="9">Production Co. Ltd</text>
  <line x1="168" y1="256" x2="782" y2="256" stroke="#E5E5E5" stroke-width="1"/>
  <!-- Days list -->
  <rect x="184" y="266" width="582" height="36" rx="8" fill="#FAF8F4"/>
  <text x="200" y="285" fill="#555" font-size="10" font-weight="500">Mon 24 Mar — Basic Working Day</text>
  <text x="680" y="285" text-anchor="end" fill="#1F1F21" font-size="10" font-weight="600">£796.32</text>
  <rect x="184" y="308" width="582" height="36" rx="8" fill="#FAF8F4"/>
  <text x="200" y="327" fill="#555" font-size="10" font-weight="500">Tue 25 Mar — Travel Day</text>
  <text x="680" y="327" text-anchor="end" fill="#1F1F21" font-size="10" font-weight="600">£284.00</text>
  <!-- Total -->
  <line x1="184" y1="358" x2="766" y2="358" stroke="#E5E5E5" stroke-width="1"/>
  <text x="200" y="380" fill="#1F1F21" font-size="12" font-weight="700">Job Total</text>
  <text x="766" y="380" text-anchor="end" fill="#1F1F21" font-size="16" font-weight="700">£1,080.32</text>
  <rect x="630" y="392" width="120" height="28" rx="14" fill="#1F1F21"/>
  <text x="690" y="410" text-anchor="middle" fill="white" font-size="10">Generate Invoice</text>
</svg>
