<svg xmlns="http://www.w3.org/2000/svg" viewBox="0 0 800 460" font-family="system-ui, -apple-system, sans-serif">
  <rect width="800" height="460" fill="#FAF8F4"/>
  <rect width="148" height="460" fill="#1F1F21"/>
  <!-- Logo area -->
  <rect x="16" y="14" width="28" height="28" rx="6" fill="#FFD528"/>
  <g fill="#1F1F21">
    <rect x="29" y="17" width="2" height="1"/>
    <rect x="28" y="18" width="4" height="1"/>
    <rect x="27" y="19" width="6" height="1"/>
    <rect x="26" y="20" width="8" height="4"/>
    <rect x="29" y="21" width="2" height="2" fill="#FFD528"/>
    <rect x="24" y="24" width="12" height="1"/>
    <rect x="24" y="25" width="1" height="2"/><rect x="26" y="25" width="1" height="2"/>
    <rect x="28" y="25" width="1" height="2"/><rect x="30" y="25" width="1" height="2"/>
    <rect x="32" y="25" width="1" height="2"/><rect x="35" y="25" width="1" height="2"/>
    <rect x="24" y="27" width="12" height="1"/>
    <rect x="26" y="28" width="8" height="3"/>
    <rect x="29" y="29" width="2" height="1" fill="#FFD528"/>
    <rect x="25" y="31" width="10" height="4"/>
    <rect x="29" y="33" width="2" height="2" fill="#FFD528"/>
    <rect x="23" y="35" width="14" height="2"/>
    <rect x="22" y="37" width="16" height="2"/>
  </g>
  <text x="54" y="33" fill="white" font-size="13" font-weight="600">Crew Dock</text>
  <!-- Nav -->
  <text x="24" y="78" fill="#9A9A9A" font-size="11">Dashboard</text>
  <rect x="10" y="86" width="128" height="30" rx="8" fill="#FFD528"/>
  <text x="24" y="106" fill="#1F1F21" font-size="11" font-weight="600">Projects</text>
  <text x="24" y="134" fill="#9A9A9A" font-size="11">AI Input</text>
  <text x="24" y="162" fill="#9A9A9A" font-size="11">Timesheets</text>
  <text x="24" y="190" fill="#9A9A9A" font-size="11">Support</text>
  <text x="24" y="420" fill="#9A9A9A" font-size="11">Settings</text>
  <!-- Header -->
  <text x="168" y="36" fill="#1F1F21" font-size="18" font-weight="700">Projects</text>
  <text x="168" y="52" fill="#9A9A9A" font-size="10">All your crew booking projects</text>
  <rect x="672" y="18" width="108" height="28" rx="14" fill="#FFD528"/>
  <text x="726" y="37" text-anchor="middle" fill="#1F1F21" font-size="10" font-weight="600">+ New Project</text>
  <!-- Search bar -->
  <rect x="168" y="64" width="300" height="28" rx="14" fill="white" stroke="#E5E5E5" stroke-width="1"/>
  <text x="188" y="82" fill="#C0C0C0" font-size="9">Search projects...</text>
  <!-- Project cards -->
  <rect x="168" y="102" width="230" height="86" rx="12" fill="white" stroke="#FFD528" stroke-width="2"/>
  <text x="184" y="126" fill="#1F1F21" font-size="12" font-weight="600">Nike Summer 2026</text>
  <text x="184" y="143" fill="#9A9A9A" font-size="9">Production Co. Ltd</text>
  <text x="184" y="162" fill="#9A9A9A" font-size="8">6 Apr – 10 Apr 2026</text>
  <rect x="310" y="156" width="56" height="18" rx="9" fill="#D1FAE5"/>
  <text x="338" y="168" text-anchor="middle" fill="#059669" font-size="8" font-weight="600">Ongoing</text>
  <rect x="370" y="156" width="18" height="18" rx="9" fill="#1F1F21"/>
  <text x="379" y="168" text-anchor="middle" fill="white" font-size="8" font-weight="700">5</text>

  <rect x="410" y="102" width="230" height="86" rx="12" fill="white" stroke="#E5E5E5" stroke-width="1"/>
  <text x="426" y="126" fill="#1F1F21" font-size="12" font-weight="600">Horizon TVC</text>
  <text x="426" y="143" fill="#9A9A9A" font-size="9">Lighthouse Films</text>
  <text x="426" y="162" fill="#9A9A9A" font-size="8">20 Mar – 22 Mar 2026</text>
  <rect x="548" y="156" width="60" height="18" rx="9" fill="#FEF3C7"/>
  <text x="578" y="168" text-anchor="middle" fill="#D97706" font-size="8" font-weight="600">Invoiced</text>
  <rect x="612" y="156" width="18" height="18" rx="9" fill="#1F1F21"/>
  <text x="621" y="168" text-anchor="middle" fill="white" font-size="8" font-weight="700">3</text>

  <!-- Detail panel -->
  <rect x="168" y="200" width="614" height="246" rx="12" fill="white" stroke="#FFD528" stroke-width="2"/>
  <text x="184" y="228" fill="#1F1F21" font-size="13" font-weight="600">Nike Summer 2026</text>
  <text x="184" y="245" fill="#9A9A9A" font-size="9">Production Co. Ltd · 6 – 10 Apr 2026</text>
  <!-- Status buttons -->
  <rect x="470" y="216" width="60" height="22" rx="11" fill="#D1FAE5"/>
  <text x="500" y="231" text-anchor="middle" fill="#059669" font-size="8" font-weight="600">Ongoing</text>
  <rect x="536" y="216" width="60" height="22" rx="11" fill="white" stroke="#E5E5E5" stroke-width="0.5"/>
  <text x="566" y="231" text-anchor="middle" fill="#9A9A9A" font-size="8">Finished</text>
  <rect x="602" y="216" width="60" height="22" rx="11" fill="white" stroke="#E5E5E5" stroke-width="0.5"/>
  <text x="632" y="231" text-anchor="middle" fill="#9A9A9A" font-size="8">Invoiced</text>
  <rect x="668" y="216" width="46" height="22" rx="11" fill="white" stroke="#E5E5E5" stroke-width="0.5"/>
  <text x="691" y="231" text-anchor="middle" fill="#9A9A9A" font-size="8">Paid</text>
  <line x1="168" y1="250" x2="782" y2="250" stroke="#E5E5E5" stroke-width="1"/>
  <!-- Days list -->
  <rect x="184" y="260" width="582" height="32" rx="8" fill="#FAF8F4"/>
  <rect x="190" y="264" width="20" height="20" rx="10" fill="#1F1F21"/>
  <text x="200" y="278" text-anchor="middle" fill="white" font-size="8" font-weight="700">1</text>
  <text x="218" y="278" fill="#555" font-size="9" font-weight="500">Mon 06 Apr — Shoot Day</text>
  <text x="440" y="278" fill="#9A9A9A" font-size="8">Gaffer · 07:00–19:00</text>
  <text x="680" y="278" text-anchor="end" fill="#1F1F21" font-size="10" font-weight="600">£856.20</text>

  <rect x="184" y="298" width="582" height="32" rx="8" fill="#FAF8F4"/>
  <rect x="190" y="302" width="20" height="20" rx="10" fill="#1F1F21"/>
  <text x="200" y="316" text-anchor="middle" fill="white" font-size="8" font-weight="700">2</text>
  <text x="218" y="316" fill="#555" font-size="9" font-weight="500">Tue 07 Apr — Shoot Day</text>
  <text x="440" y="316" fill="#9A9A9A" font-size="8">Gaffer · 07:00–20:00</text>
  <text x="680" y="316" text-anchor="end" fill="#1F1F21" font-size="10" font-weight="600">£910.40</text>

  <rect x="184" y="336" width="582" height="32" rx="8" fill="#FAF8F4"/>
  <rect x="190" y="340" width="20" height="20" rx="10" fill="#1F1F21"/>
  <text x="200" y="354" text-anchor="middle" fill="white" font-size="8" font-weight="700">3</text>
  <text x="218" y="354" fill="#555" font-size="9" font-weight="500">Wed 08 Apr — Travel Day</text>
  <text x="440" y="354" fill="#9A9A9A" font-size="8">Gaffer · 284.00</text>
  <text x="680" y="354" text-anchor="end" fill="#1F1F21" font-size="10" font-weight="600">£284.00</text>
  <!-- Total -->
  <rect x="184" y="380" width="582" height="36" rx="8" fill="#1F1F21"/>
  <text x="200" y="403" fill="white" font-size="12" font-weight="700">Project Total</text>
  <text x="758" y="403" text-anchor="end" fill="#FFD528" font-size="15" font-weight="700">£3,420.60</text>
  <!-- Action buttons -->
  <rect x="184" y="424" width="70" height="26" rx="13" fill="white" stroke="#E5E5E5" stroke-width="1"/>
  <text x="219" y="441" text-anchor="middle" fill="#555" font-size="9">Edit</text>
  <rect x="262" y="424" width="86" height="26" rx="13" fill="white" stroke="#E5E5E5" stroke-width="1"/>
  <text x="305" y="441" text-anchor="middle" fill="#555" font-size="9">Timesheet</text>
  <rect x="356" y="424" width="76" height="26" rx="13" fill="white" stroke="#E5E5E5" stroke-width="1"/>
  <text x="394" y="441" text-anchor="middle" fill="#555" font-size="9">Invoice</text>
  <rect x="440" y="424" width="70" height="26" rx="13" fill="white" stroke="#E5E5E5" stroke-width="1"/>
  <text x="475" y="441" text-anchor="middle" fill="#555" font-size="9">Share</text>
</svg>
