<svg xmlns="http://www.w3.org/2000/svg" viewBox="0 0 800 460" font-family="system-ui, -apple-system, sans-serif">
  <rect width="800" height="460" fill="#FAF8F4"/>
  <rect width="148" height="460" fill="#1F1F21"/>
  <rect x="16" y="14" width="28" height="28" rx="6" fill="#FFD528"/>
  <rect x="21" y="20" width="3" height="16" rx="1" fill="#1F1F21"/>
  <rect x="19" y="18" width="7" height="4" rx="1" fill="#1F1F21"/>
  <rect x="17" y="34" width="11" height="3" rx="1" fill="#1F1F21"/>
  <rect x="26" y="24" width="6" height="3" rx="1" fill="#1F1F21"/>
  <text x="54" y="33" fill="white" font-size="13" font-weight="600">Crew Dock</text>
  <text x="24" y="78" fill="#9A9A9A" font-size="11">Dashboard</text>
  <text x="24" y="106" fill="#9A9A9A" font-size="11">Calculator</text>
  <text x="24" y="134" fill="#9A9A9A" font-size="11">Jobs</text>
  <text x="24" y="162" fill="#9A9A9A" font-size="11">AI Input</text>
  <text x="24" y="190" fill="#9A9A9A" font-size="11">Invoices</text>
  <text x="24" y="218" fill="#9A9A9A" font-size="11">Support</text>
  <rect x="10" y="374" width="128" height="30" rx="8" fill="#FFD528"/>
  <text x="24" y="394" fill="#1F1F21" font-size="11" font-weight="600">Settings</text>
  <!-- Header -->
  <text x="168" y="36" fill="#1F1F21" font-size="16" font-weight="700">⚙ Settings</text>
  <!-- Settings sub-nav -->
  <rect x="168" y="50" width="160" height="390" rx="12" fill="white" stroke="#E5E5E5" stroke-width="1"/>
  <rect x="178" y="60" width="140" height="28" rx="8" fill="#1F1F21"/>
  <text x="248" y="79" text-anchor="middle" fill="white" font-size="10" font-weight="500">User Details</text>
  <text x="194" y="110" fill="#555" font-size="10">Company Details</text>
  <text x="194" y="134" fill="#555" font-size="10">Custom Rates</text>
  <text x="194" y="158" fill="#555" font-size="10">My Equipment</text>
  <text x="194" y="182" fill="#555" font-size="10">Password</text>
  <text x="194" y="206" fill="#9A9A9A" font-size="10">Billing  <tspan fill="#9A9A9A" font-size="8">Soon</tspan></text>
  <text x="194" y="230" fill="#555" font-size="10">Integrations</text>
  <text x="194" y="260" fill="#E53E3E" font-size="10">⚠ Danger Zone</text>
  <!-- Main settings panel -->
  <rect x="342" y="50" width="440" height="390" rx="12" fill="white" stroke="#E5E5E5" stroke-width="1"/>
  <text x="362" y="82" fill="#1F1F21" font-size="14" font-weight="600">👤 User Details</text>
  <text x="362" y="98" fill="#9A9A9A" font-size="9">Your personal information and primary department</text>
  <line x1="342" y1="108" x2="782" y2="108" stroke="#E5E5E5" stroke-width="1"/>
  <text x="362" y="128" fill="#555" font-size="9" font-weight="600">EMAIL</text>
  <rect x="362" y="134" width="400" height="26" rx="8" fill="#FAF8F4" stroke="#E5E5E5" stroke-width="1"/>
  <text x="378" y="151" fill="#9A9A9A" font-size="9">support@crewdock.app</text>
  <text x="362" y="178" fill="#555" font-size="9" font-weight="600">DISPLAY NAME</text>
  <rect x="362" y="184" width="400" height="26" rx="8" fill="#FAF8F4" stroke="#E5E5E5" stroke-width="1"/>
  <text x="378" y="201" fill="#9A9A9A" font-size="9">Your full name</text>
  <text x="362" y="228" fill="#555" font-size="9" font-weight="600">PHONE</text>
  <rect x="362" y="234" width="400" height="26" rx="8" fill="#FAF8F4" stroke="#E5E5E5" stroke-width="1"/>
  <text x="378" y="251" fill="#9A9A9A" font-size="9">+44 7700 000000</text>
  <text x="362" y="278" fill="#555" font-size="9" font-weight="600">MY DEPARTMENT</text>
  <rect x="362" y="284" width="400" height="26" rx="8" fill="#FAF8F4" stroke="#E5E5E5" stroke-width="1"/>
  <text x="378" y="301" fill="#9A9A9A" font-size="9">Select your primary department...</text>
  <rect x="362" y="388" width="400" height="34" rx="17" fill="#FFD528"/>
  <text x="562" y="410" text-anchor="middle" fill="#1F1F21" font-size="10" font-weight="600">💾 Save User Details</text>
</svg>
